<svg width="90" height="27" viewBox="0 0 90 27" fill="none" xmlns="http://www.w3.org/2000/svg">
<path d="M3.29947 1.43923V24.0211C3.29947 24.2328 3.39541 24.4125 3.51781 24.431C4.21239 24.5297 4.98406 24.5297 5.79479 24.431C6.45645 24.3432 7.26375 24.1812 8.26062 23.934C8.22427 24.2792 8.20635 24.6519 8.20635 25.0545C8.20635 25.3971 8.22687 25.8136 8.26562 26.2646H0.42041V1.44369C0.569889 1.46618 0.762703 1.50669 1.00114 1.56236C1.34927 1.66461 1.70656 1.66711 1.91947 1.56968L2.6252 1.56433C2.89375 1.50151 3.11593 1.45779 3.29947 1.43923ZM12.7035 2.6741C12.285 2.77421 12.0062 2.77618 11.8052 2.67946H11.0995C10.8501 2.6211 10.6597 2.58381 10.5163 2.56007V26.2644H13.2475V2.55472C13.0903 2.57542 12.9115 2.61432 12.7035 2.6741ZM15.4086 2.53741C15.435 2.87379 15.4482 3.21017 15.4482 3.53905C15.4482 3.97161 15.4357 4.35349 15.4125 4.67988H15.8686C17.161 4.39989 18.2462 4.25677 19.0783 4.25677C19.2116 4.25677 19.3187 4.44058 19.3187 4.66649V26.2646H21.9682V4.66649C21.9682 4.4404 22.0758 4.25677 22.2082 4.25677C22.8137 4.25677 23.6802 4.35224 24.7852 4.53926C25.0648 4.60832 25.3614 4.65204 25.6706 4.67202C25.6393 4.34439 25.6393 3.96893 25.6718 3.54904C25.6377 3.21409 25.6393 2.87397 25.678 2.53759H15.4086V2.53741ZM27.8516 2.53741V26.2646H35.334C35.2975 25.8372 35.2781 25.4466 35.2781 25.1238C35.2781 24.7544 35.2948 24.4085 35.3249 24.0918C34.8156 24.2246 34.2483 24.3306 33.6397 24.4019C32.9319 24.4995 31.957 24.5468 30.7403 24.5468C30.6081 24.5468 30.501 24.3623 30.501 24.1346V14.9645C30.501 14.7389 30.6081 14.5546 30.7403 14.5546H32.7426C33.4098 14.6213 33.9459 14.6886 34.483 14.7548L34.8794 14.8019C34.8678 14.7112 34.8548 14.6088 34.8403 14.5003L34.833 12.85C34.833 12.8036 34.8369 12.7585 34.8462 12.7187C34.8513 12.6869 34.8571 12.6537 34.8629 12.6232C34.1577 12.7731 33.5131 12.8361 32.7427 12.8361H30.7404C30.6082 12.8361 30.5011 12.6516 30.5011 12.4255V4.66649C30.5011 4.4404 30.6082 4.25677 30.7404 4.25677C32.2173 4.25677 33.7682 4.4213 35.353 4.74751C35.3031 4.3733 35.2781 4.0139 35.2781 3.67967C35.2781 3.2819 35.303 2.89841 35.3538 2.53741H27.8516ZM46.5986 18.9746C46.5412 16.0423 45.2261 13.4403 42.682 11.2602C40.7965 9.59616 39.8815 7.97905 39.8815 6.32215C39.8815 3.64987 40.795 2.18265 42.5241 2.07594C43.7006 2.07594 44.6057 3.15574 45.2187 5.29017C45.2828 4.91471 45.3724 4.43469 45.4885 3.83099C45.6302 3.19161 45.7502 2.65519 45.8507 2.2121C44.9466 1.28951 43.8563 0.774687 42.6088 0.68457C39.4701 0.969019 37.8869 3.4459 37.7782 8.25511C37.7782 11.4952 38.9768 14.0974 41.3416 15.9804C43.3185 17.5191 44.3198 19.2829 44.3198 21.2166C44.1944 23.9342 43.249 25.3577 41.5074 25.4648C39.7845 25.3622 38.7066 23.9728 38.2974 21.334H38.2668C38.1565 22.7679 37.9809 24.1839 37.7451 25.5458C38.7933 26.2255 39.8816 26.6168 40.982 26.7079C44.4579 26.7071 46.3769 23.8862 46.5986 18.9746ZM51.1747 15.5596C51.1332 15.5644 51.0728 15.5826 51.0225 15.6675C50.9787 15.7425 50.9532 15.8444 50.9532 15.9491V26.2644H48.2035V2.53349H53.157C55.9931 2.53349 57.3985 4.39061 57.4508 8.20639C57.4713 10.283 57.1379 11.9358 56.4611 13.1166C55.5293 14.743 53.8984 15.5674 51.6137 15.5674C51.4732 15.5674 51.3331 15.5639 51.1747 15.5596ZM51.1499 14.3634C51.2557 14.3898 51.3698 14.4039 51.4852 14.4039C51.8231 14.4039 52.213 14.2921 52.6425 14.0726C53.8903 13.461 54.5833 11.7226 54.6999 8.87968C54.5833 5.67473 53.8476 3.89184 52.4977 3.5808H51.1831C51.0567 3.5808 50.9532 3.75783 50.9532 3.97411V13.9769C50.9532 14.1711 51.0368 14.337 51.1499 14.3634ZM68.4497 2.53349V26.2644H75.9446C75.909 25.8333 75.8897 25.4359 75.8897 25.1052C75.8897 24.7292 75.9051 24.3761 75.9383 24.055C75.4228 24.1903 74.8519 24.2986 74.2418 24.3702C73.5278 24.4664 72.5823 24.5124 71.3481 24.5124C71.2211 24.5124 71.1181 24.3352 71.1181 24.1214V14.962C71.1181 14.7469 71.2211 14.5699 71.3481 14.5699H73.5682C74.4022 14.6561 75.161 14.7378 75.8565 14.8192C75.8441 14.7218 75.8308 14.6124 75.8131 14.4928L75.8062 12.85C75.8062 12.805 75.8093 12.7624 75.8184 12.7247C75.8261 12.683 75.8339 12.6418 75.8417 12.6046C75.1479 12.7453 74.3844 12.8182 73.5683 12.8182H71.3482C71.2212 12.8182 71.1182 12.6418 71.1182 12.4269V4.67791C71.1182 4.46163 71.2212 4.28586 71.3482 4.28586C72.828 4.28586 74.3815 4.45307 75.9672 4.78016C75.9147 4.39739 75.8899 4.03264 75.8899 3.69305C75.8899 3.28511 75.9147 2.89841 75.9695 2.53366H68.4497V2.53349ZM82.4336 26.2646H77.8702V2.53349L83.7398 2.53152C87.6973 2.99317 89.727 6.64443 89.9422 13.6725C89.6758 21.5708 87.1492 25.8076 82.4336 26.2646ZM86.8635 13.6943C86.8635 7.17174 85.1529 3.86133 81.783 3.86133H80.7648C80.6403 3.86133 80.5366 4.03906 80.5366 4.25534V24.5442C80.5366 24.7583 80.6403 24.9362 80.7648 24.9362H81.6647C83.3875 24.9362 84.7015 23.9722 85.572 22.076C86.4276 20.2043 86.8635 17.3849 86.8635 13.6943ZM58.9854 2.53349V26.2644H66.4792C66.4435 25.8333 66.4232 25.4359 66.4232 25.1052C66.4232 24.7292 66.4397 24.3761 66.4721 24.055C65.9549 24.1903 65.3853 24.2986 64.7763 24.3702C64.0628 24.4664 63.1154 24.5124 61.881 24.5124C61.7557 24.5124 61.652 24.3352 61.652 24.1214V14.962C61.652 14.7469 61.7557 14.5699 61.881 14.5699H64.1023C64.9375 14.6561 65.6951 14.7378 66.3905 14.8192C66.3785 14.7218 66.3641 14.6124 66.3476 14.4928L66.3402 12.85C66.3402 12.805 66.3448 12.7624 66.3529 12.7247C66.3602 12.683 66.3676 12.6418 66.3734 12.6046C65.6826 12.7453 64.9196 12.8182 64.1023 12.8182H61.881C61.7557 12.8182 61.652 12.6418 61.652 12.4269V4.67791C61.652 4.46163 61.7557 4.28586 61.881 4.28586C63.3608 4.28586 64.9147 4.45307 66.5004 4.78016C66.4494 4.39739 66.4233 4.03264 66.4233 3.69305C66.4233 3.28511 66.4506 2.89841 66.5017 2.53366H58.9854V2.53349Z" fill="#002D73"/>
</svg>
